<svg width="233" height="39" viewBox="0 0 233 39" fill="none" xmlns="http://www.w3.org/2000/svg">
<path d="M49.1849 24.4095L39.9026 8.35685C37.8533 5.02008 32.9107 4.95996 30.9518 8.50716L21.1873 25.2211C19.3791 28.2873 21.6092 32.1351 25.2559 32.1351H44.7849C48.4616 32.1351 51.2041 28.1671 49.1849 24.4095Z" fill="white"/>
<path d="M35.7725 25.672L35.1999 24.6799C34.6574 23.748 33.4821 21.764 33.4821 21.764L25.6162 8.14637C24.0491 5.77155 20.8545 5.14027 18.4737 6.70344C17.7202 7.18442 17.1175 7.87582 16.7257 8.68747L7.59408 24.4695C6.17762 26.9045 7.02147 30.0308 9.49273 31.4437C10.2763 31.8946 11.1503 32.1351 12.0544 32.1351H44.6932C39.6602 32.1651 38.0629 29.5498 35.7725 25.672Z" fill="white"/>
<path d="M35.774 25.672L35.2014 24.68C34.6589 23.7481 33.4836 21.764 33.4836 21.764L28.4205 12.866L21.1273 25.2511C19.319 28.3173 21.5492 32.1652 25.1958 32.1652H44.6947C39.6316 32.1351 38.0644 29.5498 35.774 25.672Z" fill="url(#paint0_linear_928_2762)"/>
<path d="M224.343 30.8723C223.227 30.9024 222.142 30.6319 221.208 30.0908C220.395 29.5797 219.912 28.6779 219.973 27.7159V12.1744H222.052C222.805 12.1744 223.438 12.8057 223.438 13.5572V27.235C223.469 27.6859 223.649 28.1067 223.981 28.4374C224.312 28.7681 224.764 28.9484 225.216 28.9484H225.608C225.759 28.9484 225.91 29.0687 225.91 29.249V30.9325L224.343 30.8723Z" fill="white"/>
<path d="M179.709 30.8723C177.57 30.8723 175.822 30.3012 174.496 29.1588C173.863 28.6478 173.381 27.9865 173.079 27.2349C172.778 26.5135 172.657 25.4914 172.657 24.1086C172.657 22.7258 172.808 21.6736 173.079 20.9822C173.381 20.2608 173.863 19.6295 174.465 19.1185C175.792 17.9761 177.539 17.405 179.679 17.405C181.819 17.405 183.567 17.9761 184.893 19.1185C185.496 19.5994 185.978 20.2608 186.279 20.9822C186.611 22.0043 186.761 23.0564 186.701 24.1386C186.701 25.5214 186.551 26.5736 186.279 27.265C185.978 28.0165 185.496 28.6779 184.863 29.1889C183.627 30.3012 181.849 30.8723 179.709 30.8723ZM179.709 19.389C177.359 19.389 176.183 20.9822 176.183 24.1687C176.183 27.3552 177.359 28.9785 179.709 28.9785C182.06 28.9785 183.235 27.3852 183.235 24.1988C183.235 21.0123 182.03 19.389 179.709 19.389Z" fill="white"/>
<path d="M194.506 30.8724C192.728 30.9025 190.98 30.3914 189.473 29.3994C189.232 29.189 188.961 29.0086 188.69 28.8583C188.599 28.7982 188.539 28.708 188.539 28.6178V12.1744H190.649C191.402 12.1744 192.035 12.8057 192.035 13.5572V18.367L192.668 18.0063C193.421 17.6155 194.416 17.4351 195.712 17.4351C197.972 17.4351 199.69 18.1265 200.805 19.4192C201.8 20.5915 202.312 22.1547 202.312 24.0786C202.312 26.0025 201.739 27.5657 200.594 28.708C199.298 30.181 197.219 30.8724 194.506 30.8724ZM194.838 19.3891C194.054 19.3891 193.15 19.6897 192.156 20.2909L192.005 20.351V28.0767L192.156 28.197C192.969 28.708 193.873 28.9485 194.838 28.9485C196.043 28.9786 197.188 28.3773 197.791 27.3553C198.394 26.3933 198.725 25.281 198.695 24.1387C198.695 20.9823 197.399 19.3891 194.838 19.3891Z" fill="white"/>
<path d="M210.571 30.8425C206.653 30.8425 204.181 28.2873 204.181 24.1089C204.181 19.9304 206.592 17.4052 210.51 17.4052C211.866 17.3752 213.223 17.766 214.338 18.5476L214.549 18.6979V17.6758H217.291C217.442 17.6758 217.562 17.796 217.562 17.9463V30.602H214.488V29.4597L214.277 29.6401C213.434 30.4217 212.077 30.8425 210.571 30.8425ZM211.264 19.6899C208.792 19.6899 207.346 21.5837 207.346 24.1089C207.346 26.634 208.823 28.5879 211.264 28.5879C212.047 28.5879 213.403 28.5278 214.488 27.4456L214.519 27.4156V20.9224L214.488 20.8923C213.765 20.0506 212.65 19.6899 211.264 19.6899Z" fill="white"/>
<path d="M83.7219 30.722V12.1744H99.1824V13.3468C99.1824 14.2786 98.429 15.0302 97.4947 15.0302H87.5494V19.9902H97.4947V22.846H87.5494V27.8362H97.4947C98.429 27.8362 99.1824 28.5877 99.1824 29.5196V30.692L83.7219 30.722Z" fill="white"/>
<path d="M121.363 12.1445H117.717C117.054 12.1445 116.421 12.4451 115.999 12.9561L111.629 18.4874L107.229 12.9862C106.807 12.4751 106.174 12.1745 105.511 12.1745H101.865L109.248 21.4333L101.865 30.6921H105.511C106.174 30.6921 106.807 30.3915 107.229 29.8805L111.629 24.4094L116.059 29.9406C116.481 30.4516 117.114 30.7523 117.777 30.7523H121.424L114.01 21.4935L121.363 12.1445Z" fill="white"/>
<path d="M71.6065 28.738L76.6696 19.9001V30.6619H80.5272V12.1142H78.1463C77.3929 12.1142 76.6997 12.505 76.3381 13.1664L70.2805 24.1988L64.2229 13.1664C63.8612 12.505 63.1681 12.0842 62.4146 12.1142H60.0037V30.6619H63.8612V19.9001L68.9243 28.738H71.6065Z" fill="white"/>
<path d="M131.429 30.9325C126.155 31.0528 121.785 26.8743 121.695 21.6136C121.695 21.5535 121.695 21.5234 121.695 21.4633C121.695 18.5474 122.599 16.1124 124.257 14.4591C125.914 12.8057 128.355 11.934 131.249 11.934C134.654 11.934 137.306 13.1063 139.235 15.391L138.03 16.4131C137.276 17.0443 136.161 17.0744 135.347 16.4732C134.202 15.6315 132.816 15.2106 131.399 15.2707C127.602 15.2707 125.372 17.5554 125.372 21.4032C125.372 25.251 127.692 27.6859 131.399 27.6859C132.816 27.716 134.202 27.2951 135.347 26.4835C136.161 25.8823 137.246 25.9123 138.03 26.5436L139.235 27.5657C137.336 29.7902 134.745 30.9325 131.429 30.9325Z" fill="white"/>
<path d="M155.178 30.9028C149.18 30.9028 145.473 27.2654 145.473 21.4336C145.473 15.6017 149.18 11.9644 155.117 11.9644C157.98 11.9644 160.361 12.776 162.23 14.4594L161.326 15.4514C160.693 16.1428 159.698 16.3232 158.854 15.9024C157.679 15.3312 156.413 15.0306 155.117 15.0306C151.26 15.0306 148.879 17.4956 148.879 21.4336C148.879 25.3716 151.38 27.8667 155.389 27.8667C157.317 27.8667 158.824 27.5059 159.909 26.7243L159.969 26.6943V22.8765H155.72V21.644C155.72 20.7121 156.474 19.9606 157.408 19.9606H162.652C162.802 19.9606 162.953 20.0808 162.953 20.2612V28.4979C161.115 30.0912 158.493 30.9028 155.178 30.9028Z" fill="white"/>
<path d="M169.824 30.8723C168.709 30.9024 167.624 30.6319 166.69 30.0908C165.876 29.5797 165.394 28.6779 165.424 27.7159V12.1744H167.504C168.287 12.1744 168.89 12.8057 168.89 13.5572V27.235C168.92 27.6859 169.101 28.1067 169.432 28.4374C169.764 28.7681 170.216 28.9484 170.668 28.9484H171.06C171.211 28.9484 171.361 29.0687 171.361 29.249V30.9325L169.824 30.8723Z" fill="white"/>
<defs>
<linearGradient id="paint0_linear_928_2762" x1="32.5907" y1="12.866" x2="32.5907" y2="32.1652" gradientUnits="userSpaceOnUse">
<stop stop-color="white"/>
<stop offset="1" stop-color="#999999"/>
</linearGradient>
</defs>
</svg>
