<svg width="235" height="55" viewBox="0 0 235 55" fill="none" xmlns="http://www.w3.org/2000/svg">
<path d="M79.0459 26.2968V18.1499H83.4268C86.2004 18.1499 87.8708 19.7226 87.8708 22.2391C87.8708 24.6926 86.1688 26.2968 83.4268 26.2968H79.0459ZM84.0887 31.078C89.6988 31.078 93.4494 27.3978 93.4494 22.2076C93.4494 17.0175 89.6988 13.3687 84.0887 13.3687H73.4673V41.7729H79.0144V31.078H84.0887Z" fill="white"/>
<path d="M102.513 30.5311C102.639 28.3606 103.963 26.6935 106.2 26.6935C108.753 26.6935 109.856 28.4236 109.856 30.6254V42.1381H115.214V29.7132C115.214 25.3724 112.882 21.9123 107.871 21.9123C105.98 21.9123 103.805 22.5414 102.544 24.0827V13.1362H97.2178V42.1381H102.544V30.5311H102.513Z" fill="white"/>
<path d="M119.388 36.394C119.388 39.4766 121.973 42.339 126.164 42.339C129.096 42.339 130.987 40.9864 131.995 39.4137C131.995 40.2 132.058 40.9864 132.184 41.7728H137.07C136.912 40.7348 136.849 39.6968 136.817 38.6587V28.939C136.817 24.9756 134.485 21.4526 128.213 21.4526C122.918 21.4526 120.05 24.8498 119.735 27.9324L124.463 28.939C124.62 27.209 125.912 25.7306 128.245 25.7306C130.482 25.7306 131.585 26.8944 131.585 28.3099C131.585 29.0019 131.239 29.5681 130.104 29.7254L125.25 30.4489C121.973 30.8892 119.388 32.8709 119.388 36.394ZM127.299 38.3442C125.566 38.3442 124.746 37.2118 124.746 36.0479C124.746 34.5381 125.818 33.7517 127.205 33.563L131.649 32.8709V33.7517C131.617 37.2747 129.537 38.3442 127.299 38.3442Z" fill="white"/>
<path d="M147.565 30.4173C147.565 28.1211 148.92 26.3281 151.253 26.3281C153.805 26.3281 154.909 28.0581 154.909 30.26V41.7727H160.267V29.3478C160.267 25.007 158.029 21.5469 153.112 21.5469C150.969 21.5469 148.605 22.4591 147.407 24.5037V22.0816H142.207V41.8041H147.533V30.4173H147.565Z" fill="white"/>
<path d="M172.243 16.168H167.421V18.936C167.421 20.6976 166.444 22.0501 164.364 22.0501H163.355V26.7684H166.916V35.9534C166.916 39.7595 169.312 42.0558 173.188 42.0558C174.229 42.0872 175.237 41.9299 176.214 41.5839V37.2116C175.678 37.3375 175.111 37.3689 174.575 37.3689C173.062 37.3689 172.243 36.8027 172.243 35.0727V26.8313H176.214V22.113H172.243V16.168Z" fill="white"/>
<path d="M189.452 37.5265C186.836 37.5265 184.44 35.6077 184.44 31.9274C184.44 28.2472 186.836 26.3284 189.452 26.3284C192.068 26.3284 194.463 28.2157 194.463 31.9274C194.463 35.6392 192.068 37.5265 189.452 37.5265ZM189.452 21.4528C183.558 21.4528 179.083 25.8251 179.083 31.896C179.083 37.9669 183.558 42.3392 189.452 42.3392C195.346 42.3392 199.821 37.9354 199.821 31.896C199.821 25.8566 195.346 21.4213 189.452 21.4528Z" fill="white"/>
<path d="M209.371 41.7728V30.2287C209.371 28.0583 210.726 26.3282 213.058 26.3282C215.454 26.3282 216.557 27.9324 216.557 30.04V41.7414H221.852V30.1972C221.852 28.0583 223.207 26.2968 225.508 26.2968C227.966 26.2968 229.006 27.901 229.006 30.0085V41.7099H234.175V28.939C234.175 23.6545 230.677 21.4526 227.02 21.4526C224.405 21.4526 222.324 22.3334 220.749 24.7555C219.74 22.6165 217.565 21.4526 214.886 21.4526C212.712 21.4526 210.19 22.4907 209.119 24.4094V22.0188H204.013V41.7414L209.371 41.7728Z" fill="white"/>
<path d="M27.1366 54.1662C42.1237 54.1662 54.2732 42.0407 54.2732 27.0831C54.2732 12.1255 42.1237 0 27.1366 0C12.1495 0 0 12.1255 0 27.0831C0 42.0407 12.1495 54.1662 27.1366 54.1662Z" fill="url(#paint0_linear_1121_243)"/>
<path d="M46.5829 27.4291H41.7923C41.7923 17.6465 33.8814 9.71973 24.111 9.71973C14.4351 9.71973 6.5557 17.4263 6.3666 27.0831C6.17749 36.9601 15.5067 45.5474 25.4347 45.5474H26.6954C35.4573 45.5474 47.2133 38.7216 49.0413 30.4174C49.325 29.0648 48.4425 27.7751 47.0872 27.492C46.9296 27.4291 46.772 27.4291 46.5829 27.4291ZM16.9565 27.8695C16.9565 29.1906 15.8849 30.2287 14.5611 30.2287C13.2374 30.2287 12.1973 29.1592 12.1973 27.8695V24.0319C12.1973 22.7108 13.2689 21.6728 14.5927 21.6728C15.9164 21.6728 16.9565 22.7423 16.9565 24.0319V27.8695ZM25.2141 27.8695C25.2141 29.1906 24.1425 30.2287 22.8187 30.2287C21.495 30.2287 20.4549 29.1592 20.4549 27.8695V24.0319C20.4549 22.7108 21.5265 21.6728 22.8503 21.6728C24.174 21.6728 25.2141 22.7423 25.2141 24.0319V27.8695Z" fill="url(#paint1_linear_1121_243)"/>
<defs>
<linearGradient id="paint0_linear_1121_243" x1="27.1492" y1="0" x2="27.1492" y2="54.1914" gradientUnits="userSpaceOnUse">
<stop stop-color="#534BB1"/>
<stop offset="1" stop-color="#551BF9"/>
</linearGradient>
<linearGradient id="paint1_linear_1121_243" x1="27.7272" y1="9.80151" x2="27.7272" y2="45.5443" gradientUnits="userSpaceOnUse">
<stop stop-color="white"/>
<stop offset="1" stop-color="white" stop-opacity="0.82"/>
</linearGradient>
</defs>
</svg>
